<svg width="97" height="20" viewBox="0 0 97 20" fill="none" xmlns="http://www.w3.org/2000/svg">
<path d="M30.1167 0.663818H27.8814L24.9751 19.3362H35.6199L35.9042 17.4824H27.4947L30.1167 0.663818Z" fill="white"/>
<path d="M48.092 0.428223C42.5115 0.428223 38.2187 5.2338 38.2187 11.1882C38.2187 15.9938 41.535 19.572 46.6263 19.572C52.0521 19.572 56.3468 15.0276 56.3468 8.83946C56.3448 4.26758 53.3883 0.428223 48.092 0.428223ZM46.6514 17.7102C43.078 17.7102 40.5314 15.2554 40.5314 11.1804C40.5314 6.34928 43.4319 2.24873 48.0727 2.24873C51.9303 2.24873 54.038 5.19452 54.038 8.82964C54.0322 13.9298 51.0234 17.7161 46.6514 17.7161V17.7102Z" fill="white"/>
<path d="M68.2001 11.7831H73.6511C73.1116 15.2297 71.1818 17.7375 67.5059 17.7375C63.4684 17.7375 61.411 15.1256 61.411 11.1311C61.411 6.22141 64.1626 2.22495 68.6622 2.22495C71.3887 2.22495 73.419 3.50539 73.6762 6.298H75.8883C75.6311 2.30154 72.4425 0.422119 68.7144 0.422119C63.161 0.422119 59.0984 5.30625 59.0984 11.1291C59.0984 15.9347 62.1071 19.5737 67.4556 19.5737C72.4193 19.5737 75.5306 16.6495 76.0952 9.91151H68.5076L68.2001 11.7831Z" fill="white"/>
<path d="M88.7452 0.428223C83.1647 0.428223 78.8719 5.2338 78.8719 11.1882C78.8719 15.9938 82.1882 19.572 87.2795 19.572C92.7053 19.572 97 15.0276 97 8.83946C97 4.26758 94.0415 0.428223 88.7452 0.428223ZM87.3046 17.7102C83.7312 17.7102 81.1846 15.2554 81.1846 11.1804C81.1846 6.34928 84.0851 2.24873 88.7259 2.24873C92.5835 2.24873 94.6912 5.19452 94.6912 8.82964C94.6854 13.9298 91.6766 17.7161 87.3046 17.7161V17.7102Z" fill="white"/>
<path d="M17.7181 0H3.11125L0 20H14.5082L17.7181 0Z" fill="white"/>
</svg>
